<svg width="1080" height="780" viewBox="0 0 1080 780" fill="none" xmlns="http://www.w3.org/2000/svg">
<path d="M521.622 18.5C416.135 18.5 330.622 75.3158 330.622 145.402C330.622 176.696 347.681 205.338 375.944 227.464V319.568L436.49 259.022C463.98 267.949 492.718 272.433 521.622 272.303C627.108 272.303 712.622 215.488 712.622 145.402C712.622 75.3158 627.108 18.5 521.622 18.5Z" fill="#F2F2F2"/>
<path d="M535.122 0.5C429.635 0.5 344.122 57.3158 344.122 127.402C344.122 158.696 361.181 187.338 389.444 209.464V301.568L449.99 241.022C477.48 249.949 506.218 254.433 535.122 254.303C640.608 254.303 726.122 197.488 726.122 127.402C726.122 57.3158 640.608 0.5 535.122 0.5Z" stroke="#3F3D56" stroke-miterlimit="10"/>
<path d="M452.132 328.864C452.132 328.864 448.29 277.124 450.099 267.661C451.908 258.198 453.607 231.26 443.661 240.115C433.715 248.97 437.249 269.06 437.249 269.06C437.249 269.06 427.811 323.742 436.54 331.16C445.269 338.579 452.132 328.864 452.132 328.864Z" fill="#A0616A"/>
<path d="M459.295 380.031C459.295 380.031 429.691 353.628 431.291 331.225C431.291 331.225 448.893 317.624 452.894 324.825C456.894 332.026 485.973 360.118 481.035 369.674C476.097 379.231 459.295 380.031 459.295 380.031Z" fill="#9FBCC1"/>
<path d="M564.107 332.826C564.107 332.826 581.71 284.02 582.51 274.419C583.31 264.817 588.91 238.414 596.111 249.616C603.312 260.817 594.511 279.219 594.511 279.219C594.511 279.219 588.91 334.426 578.509 339.226C568.108 344.027 564.107 332.826 564.107 332.826Z" fill="#A0616A"/>
<path d="M516.102 577.655H563.307L565.708 601.658L554.506 604.058C554.506 604.058 528.103 596.057 512.901 598.458C497.699 600.858 516.102 577.655 516.102 577.655Z" fill="#A0616A"/>
<path d="M547.305 574.455C547.305 574.455 569.708 559.253 573.709 572.055C577.709 584.856 592.111 631.262 587.31 636.062C582.51 640.863 576.909 632.062 576.909 632.062C576.909 632.062 567.308 612.059 560.107 611.259C552.906 610.459 548.906 604.058 548.906 604.058C548.906 604.058 569.708 588.056 547.305 574.455Z" fill="#2F2E41"/>
<path d="M504.1 698.47C504.1 698.47 512.901 734.474 511.301 740.075C509.701 745.676 536.904 742.475 536.904 742.475L538.504 732.074C538.504 732.074 522.502 706.471 522.502 695.269C522.502 684.068 504.1 698.47 504.1 698.47Z" fill="#A0616A"/>
<path d="M536.904 724.873C536.904 724.873 558.507 740.875 547.305 748.876C536.104 756.877 494.499 777.679 494.499 777.679C494.499 777.679 479.297 780.08 490.498 766.478C501.7 752.876 504.9 750.476 505.7 743.275C506.396 738.48 508.075 733.881 510.634 729.767C510.634 729.767 521.702 752.076 536.904 724.873Z" fill="#2F2E41"/>
<path d="M471.296 532.85C471.296 532.85 462.495 616.06 476.097 642.463C489.698 668.866 505.7 704.871 504.9 706.471C504.1 708.071 528.103 704.071 528.103 696.87C528.103 689.669 501.7 617.66 501.7 617.66C501.7 617.66 512.901 524.049 521.702 517.648C530.503 511.247 471.296 532.85 471.296 532.85Z" fill="#2F2E41"/>
<path opacity="0.1" d="M471.296 532.85C471.296 532.85 462.495 616.06 476.097 642.463C489.698 668.866 505.7 704.871 504.9 706.471C504.1 708.071 528.103 704.071 528.103 696.87C528.103 689.669 501.7 617.66 501.7 617.66C501.7 617.66 512.901 524.049 521.702 517.648C530.503 511.247 471.296 532.85 471.296 532.85Z" fill="black"/>
<path d="M489.38 298.021C483.661 299.057 477.995 302.199 475.151 307.565C472.498 312.571 472.329 319.261 468.108 322.856C465.588 325.002 462.168 325.498 459.355 327.183C457.356 328.462 455.73 330.246 454.641 332.354C453.552 334.462 453.039 336.821 453.153 339.191C453.379 343.605 455.707 347.717 455.657 352.138C455.593 357.885 451.619 362.63 447.882 366.789L460.277 369.089C462.15 369.59 464.115 369.642 466.011 369.241C468.152 368.608 469.891 366.845 472.056 366.307C475.159 365.536 478.23 367.424 480.999 369.099C488.882 373.867 497.334 377.465 505.755 381.048C508.233 382.102 511.042 383.158 513.486 382.021C515.461 381.102 516.689 378.956 518.546 377.794C521.871 375.714 526.047 377.28 529.784 378.307C538.236 380.6 547.226 379.835 555.168 376.145C553.455 374.145 551.211 372.747 549.367 370.885C547.522 369.023 546.029 366.386 546.516 363.734C547.014 361.03 549.339 359.224 550.923 357.042C552.094 355.313 552.908 353.368 553.319 351.32C553.73 349.273 553.729 347.164 553.316 345.118C552.484 341.046 550.503 337.298 547.608 334.316C545.956 332.769 544.397 331.126 542.94 329.393C540.023 325.455 539.302 320.242 538.369 315.333C537.436 310.423 535.963 305.198 532.176 302.209C526.144 297.446 516.347 299.07 509.295 298.597C502.571 298.146 496.088 298.021 489.38 298.021Z" fill="#2F2E41"/>
<path d="M449.694 476.043L464.895 513.647C464.895 513.647 395.287 589.657 434.492 600.058C473.696 610.459 487.298 592.057 512.101 606.459C512.101 606.459 524.103 588.057 522.502 576.855C522.502 576.855 488.098 570.454 469.696 571.254C469.696 571.254 519.302 528.049 524.103 526.449C528.903 524.849 544.905 499.246 520.102 478.443C495.299 457.641 501.7 446.439 501.7 446.439L449.694 476.043Z" fill="#2F2E41"/>
<path d="M485.698 345.627C485.698 345.627 488.098 370.43 477.697 373.631C467.296 376.831 518.502 376.031 518.502 376.031C518.502 376.031 506.5 368.83 512.101 353.628C517.702 338.426 485.698 345.627 485.698 345.627Z" fill="#A0616A"/>
<path opacity="0.1" d="M485.698 345.627C485.698 345.627 488.098 370.43 477.697 373.631C467.296 376.831 518.502 376.031 518.502 376.031C518.502 376.031 506.5 368.83 512.101 353.628C517.702 338.426 485.698 345.627 485.698 345.627Z" fill="black"/>
<path d="M540.105 388.832C540.105 388.832 535.304 364.029 525.703 365.63C516.102 367.23 496.899 368.83 494.499 370.43C492.099 372.03 479.297 375.31 479.297 375.31C479.297 375.31 484.098 369.63 479.297 368.83C474.497 368.03 459.295 372.03 457.695 375.231C456.094 378.431 449.694 384.832 449.694 396.033C449.694 407.235 444.893 426.437 446.493 434.438C448.093 442.439 445.693 460.841 440.892 471.242C436.092 481.644 440.092 492.045 448.093 481.644C456.094 471.242 452.094 481.644 458.495 482.444C464.895 483.244 493.699 453.64 501.7 460.841C509.701 468.042 517.702 472.843 519.302 468.842C520.902 464.842 512.901 457.641 512.901 454.44C512.901 451.24 500.1 464.842 513.701 436.838C527.303 408.835 514.501 400.834 540.105 388.832Z" fill="#9FBCC1"/>
<path d="M533.704 387.232L540.105 388.832C540.105 388.832 563.307 372.03 569.708 360.029C576.109 348.027 580.909 338.426 580.909 338.426C580.909 338.426 570.508 325.625 564.107 330.425C557.707 335.226 528.903 368.03 528.903 368.03L533.704 387.232Z" fill="#9FBCC1"/>
<path d="M504.1 362.429C517.798 362.429 528.903 351.325 528.903 337.626C528.903 323.928 517.798 312.823 504.1 312.823C490.402 312.823 479.297 323.928 479.297 337.626C479.297 351.325 490.402 362.429 504.1 362.429Z" fill="#A0616A"/>
<path d="M482.159 330.441C486.397 326.925 491.81 325.145 497.308 325.459C506.815 326.044 515.185 332.819 524.708 333.031C524.326 330.971 524.613 328.844 525.527 326.96C526.265 325.447 527.431 323.98 527.274 322.304C527.013 320.973 526.284 319.78 525.22 318.939C519.715 313.72 512.104 311.029 504.525 310.698C499.444 310.476 489.746 310.596 485.805 314.444C482.434 317.735 482.826 326.174 482.159 330.441Z" fill="#2F2E41"/>
<path d="M535.122 203.034C563.84 203.034 587.122 179.753 587.122 151.034C587.122 122.315 563.84 99.0339 535.122 99.0339C506.403 99.0339 483.122 122.315 483.122 151.034C483.122 179.753 506.403 203.034 535.122 203.034Z" fill="#9FBCC1"/>
<path d="M522.416 137.972C525.17 137.972 527.403 135.048 527.403 131.441C527.403 127.834 525.17 124.91 522.416 124.91C519.661 124.91 517.429 127.834 517.429 131.441C517.429 135.048 519.661 137.972 522.416 137.972Z" fill="#444053"/>
<path d="M548.184 137.972C550.938 137.972 553.171 135.048 553.171 131.441C553.171 127.834 550.938 124.91 548.184 124.91C545.429 124.91 543.196 127.834 543.196 131.441C543.196 135.048 545.429 137.972 548.184 137.972Z" fill="#444053"/>
<path d="M566.292 151.984C566.292 161.362 550.63 177.158 534.825 177.158C519.02 177.158 503.951 161.006 503.951 151.628C503.951 142.249 518.693 150.826 534.498 150.826C550.303 150.826 566.292 142.606 566.292 151.984Z" fill="#3F3D56"/>
<path d="M508.932 153.587C508.932 153.587 537.342 159.91 561.21 153.765C561.21 153.765 564.13 153.765 562.135 157.142C561.614 158.018 560.855 158.728 559.946 159.189C555.346 161.539 538.317 168.487 511.086 159.626C510.244 159.361 509.481 158.891 508.864 158.259C508.247 157.627 507.796 156.853 507.551 156.005C507.231 154.845 507.369 153.747 508.932 153.587Z" fill="#F6F8FB"/>
</svg>
